<svg id="Layer_1" data-name="Layer 1" xmlns="http://www.w3.org/2000/svg" viewBox="0 0 70.86 100.33"><defs><style>.cls-1{fill:#b8824d;}.cls-2{fill:#2a7db4;}.cls-3{fill:#3498db;}.cls-4{fill:#ffe0b1;}.cls-5{fill:#25a85c;}.cls-6{fill:#2ecc71;}.cls-7{fill:#e7cba0;}.cls-8{fill:#d7bd93;}.cls-9{fill:#fff;}.cls-10{fill:#7f7058;}.cls-11{fill:#c48a51;}</style></defs><g id="legLeft_FL_FL" data-name="legLeft FL FL"><g id="Symbol_11_0_Layer0_0_FILL" data-name="Symbol 11 0 Layer0 0 FILL"><path class="cls-1" d="M98.53,98.85,101,94.57l15.22,8.86,0,0a10.08,10.08,0,0,1,1.35,4.1l-1.06,1.84Z" transform="translate(-84.18 -9)"/><path class="cls-2" d="M101,94.57l0,0,1.67-2.92,15.26,8.89-1.64,2.87,0,0Z" transform="translate(-84.18 -9)"/><path class="cls-3" d="M110.85,82.38a8.63,8.63,0,0,1,6.65,1l0,0a8.57,8.57,0,0,1,4.11,5.3,8.45,8.45,0,0,1-.82,6.67l-3,5.18-15.26-8.89,3-5.18A8.35,8.35,0,0,1,110.85,82.38Z" transform="translate(-84.18 -9)"/></g></g><g id="armRight_FL_FL_FL_FL" data-name="armRight FL FL FL FL"><g id="Symbol_8_0_Layer0_0_FILL" data-name="Symbol 8 0 Layer0 0 FILL"><path class="cls-4" d="M146,40.89a14.52,14.52,0,0,1,8.2,1.79,53.82,53.82,0,0,1-5.6,17.58l-11.95-6.49A75.52,75.52,0,0,1,146,40.89Z" transform="translate(-84.18 -9)"/><path class="cls-5" d="M149.09,60.49l-1.46,2.63L134,55.69c-.42-.86.06-1.73,1.45-2.63l1.27.71,11.95,6.49Z" transform="translate(-84.18 -9)"/><path class="cls-6" d="M135.35,69.57l0,0c-.34-.19-.67-.39-1-.6q-4-3.09-.36-13.25l13.66,7.43-1.71,3.19a7.77,7.77,0,0,1-4.68,3.9A7.37,7.37,0,0,1,135.35,69.57Z" transform="translate(-84.18 -9)"/></g></g><g id="body_FL_FL" data-name="body FL FL"><g id="Symbol_10_0_Layer0_0_FILL" data-name="Symbol 10 0 Layer0 0 FILL"><path class="cls-1" d="M142.68,90.23V86.14H104v4.09Z" transform="translate(-84.18 -9)"/><path class="cls-6" d="M142.68,59.23H104V86.14h38.67Z" transform="translate(-84.18 -9)"/></g></g><g id="armLeft_FL_FL_FL" data-name="armLeft FL FL FL"><g id="Symbol_8_0_Layer0_0_FILL-2" data-name="Symbol 8 0 Layer0 0 FILL"><path class="cls-4" d="M85,82a14.7,14.7,0,0,0,5.34,6.53,53.06,53.06,0,0,0,12.91-13.1l-11.2-7.71A74.62,74.62,0,0,0,85,82Z" transform="translate(-84.18 -9)"/><path class="cls-5" d="M103.68,75.75l1.65-2.51L92.51,64.41c-1,0-1.5.85-1.65,2.51l1.21.82,11.2,7.71Z" transform="translate(-84.18 -9)"/><path class="cls-6" d="M105.37,59.27l0,0c-.33-.22-.65-.42-1-.6q-4.55-2.13-11.84,5.76l12.82,8.83,2-3a7.89,7.89,0,0,0,1.29-6A7.49,7.49,0,0,0,105.37,59.27Z" transform="translate(-84.18 -9)"/></g></g><g id="handLeft_FL_FL_FL" data-name="handLeft FL FL FL"><g id="Symbol_9_0_Layer0_0_FILL" data-name="Symbol 9 0 Layer0 0 FILL"><path class="cls-7" d="M96.37,83.72a17.86,17.86,0,0,1,.54,8.3l-.18.81,0,0q4.69-2.48-.38-9.06M87,86a11.77,11.77,0,0,0,2.92.71,12,12,0,0,0,3.12.09c.86-.08,1.33-.27,1.4-.57s-.26-.55-1.06-.88a17.11,17.11,0,0,0-2.92-.71,13.07,13.07,0,0,0-3.06-.11c-.88.06-1.38.24-1.49.52S86.18,85.7,87,86Z" transform="translate(-84.18 -9)"/><path class="cls-4" d="M96.91,92a17.86,17.86,0,0,0-.54-8.3l-9.68-2.1a1.06,1.06,0,0,0-1.46.82l-.12.56q-3,12,3.86,13.53a21.3,21.3,0,0,0,5.11.55c1.19,0,1.87-.39,2-1.2l.07-.24c.2-1,.38-1.94.55-2.86l0,0,.18-.81m-7-5.28A11.77,11.77,0,0,1,87,86c-.8-.33-1.16-.65-1.09-1s.61-.46,1.49-.52a13.07,13.07,0,0,1,3.06.11,17.11,17.11,0,0,1,2.92.71c.8.33,1.15.63,1.06.88s-.54.49-1.4.57A12,12,0,0,1,89.9,86.74Z" transform="translate(-84.18 -9)"/></g></g><g id="handRight_FL_FL_FL_FL" data-name="handRight FL FL FL FL"><g id="Symbol_9_0_Layer0_0_FILL-2" data-name="Symbol 9 0 Layer0 0 FILL"><path class="cls-7" d="M143.31,42.8a17.59,17.59,0,0,1-1.25-8.22l.11-.82,0,.05q-4.46,2.86,1.16,9m9.16-3.11a12,12,0,0,0-3-.46,11.67,11.67,0,0,0-3.13.18c-.84.16-1.29.39-1.34.69s.31.53,1.13.79a17,17,0,0,0,3,.46,13.71,13.71,0,0,0,3.06-.16c.87-.14,1.35-.36,1.43-.65S153.29,40,152.47,39.69Z" transform="translate(-84.18 -9)"/><path class="cls-4" d="M142.06,34.58a17.59,17.59,0,0,0,1.25,8.22l9.81,1.26c.81.11,1.28-.2,1.4-1l.06-.56q2-12.22-5-13.15a21.42,21.42,0,0,0-5.14-.11c-1.18.1-1.83.55-1.94,1.37l0,.25c-.11,1-.22,2-.31,2.9l0-.05-.11.82m7.44,4.65a12,12,0,0,1,3,.46c.82.26,1.2.55,1.15.85s-.56.51-1.43.65a13.71,13.71,0,0,1-3.06.16,17,17,0,0,1-3-.46c-.82-.26-1.2-.53-1.13-.79s.5-.53,1.34-.69A11.67,11.67,0,0,1,149.5,39.23Z" transform="translate(-84.18 -9)"/></g></g><g id="head_FL_FL" data-name="head FL FL"><g id="Symbol_12_0_Layer0_0_FILL" data-name="Symbol 12 0 Layer0 0 FILL"><path class="cls-8" d="M115.12,64.4a13.85,13.85,0,0,0,14.17,0,6.61,6.61,0,0,0,2.43-2.6h-19A6.61,6.61,0,0,0,115.12,64.4Z" transform="translate(-84.18 -9)"/><path class="cls-4" d="M141.39,57.25a68.74,68.74,0,0,0,0-20.65q-.65-4.45-5.06-4.45H106.19c-2.9,0-4.59,1.52-5,4.55a71.81,71.81,0,0,0,0,20.6c.46,3,2.15,4.5,5,4.5h30.09C139.22,61.8,140.93,60.28,141.39,57.25Z" transform="translate(-84.18 -9)"/></g><g id="Symbol_12_0_Layer0_1_FILL" data-name="Symbol 12 0 Layer0 1 FILL"><path class="cls-9" d="M117.69,45.15a3.25,3.25,0,0,0-2.52-1.1,3.58,3.58,0,0,0-2.63,1.1,4,4,0,0,0-1,2.7,3.82,3.82,0,0,0,1,2.65,3.48,3.48,0,0,0,2.63,1.15,3.17,3.17,0,0,0,2.52-1.15,3.62,3.62,0,0,0,1.09-2.65,3.79,3.79,0,0,0-1.09-2.7m8.08,10.45v-3H119a.84.84,0,0,0-.54.2.78.78,0,0,0-.4.5.88.88,0,0,0,0,.6,3.3,3.3,0,0,0,.35,1,5.47,5.47,0,0,0,.44.75h6.94m10.36-10.45a3.25,3.25,0,0,0-2.52-1.1,3.58,3.58,0,0,0-2.63,1.1,4,4,0,0,0-1,2.7,3.82,3.82,0,0,0,1,2.65,3.48,3.48,0,0,0,2.63,1.15,3.17,3.17,0,0,0,2.52-1.15,3.62,3.62,0,0,0,1.09-2.65A3.79,3.79,0,0,0,136.13,45.15Z" transform="translate(-84.18 -9)"/><path class="cls-1" d="M118.14,40a1,1,0,0,0,.74,0,1.45,1.45,0,0,0,.55-.55,1,1,0,0,0,0-.75,1.09,1.09,0,0,0-.55-.55,5.35,5.35,0,0,0-4.46,0,6,6,0,0,0-2.48,1.9,1,1,0,0,0-.19.75.9.9,0,0,0,.39.65,1,1,0,0,0,.75.2.91.91,0,0,0,.64-.4A3.74,3.74,0,0,1,115.22,40a3.58,3.58,0,0,1,2.92,0m15.71,1.55a3.74,3.74,0,0,1,1.69,1.25.93.93,0,0,0,.69.4.87.87,0,0,0,.7-.2.9.9,0,0,0,.39-.65,1,1,0,0,0-.19-.75,6,6,0,0,0-2.48-1.9,5.23,5.23,0,0,0-4.41,0,.88.88,0,0,0-.55.55.77.77,0,0,0,0,.75,1.09,1.09,0,0,0,.55.55,1,1,0,0,0,.74,0A3.47,3.47,0,0,1,133.85,41.5Z" transform="translate(-84.18 -9)"/><path class="cls-10" d="M129.19,54.85a4.66,4.66,0,0,0,.4-1,1.17,1.17,0,0,0-.05-.6.78.78,0,0,0-.35-.5,1,1,0,0,0-.59-.2h-2.83v3h-6.94a4,4,0,0,0,.75.9,5.73,5.73,0,0,0,4.21,1.8A5.62,5.62,0,0,0,128,56.55l0,0A6.07,6.07,0,0,0,129.19,54.85Z" transform="translate(-84.18 -9)"/></g><g id="Symbol_12_0_Layer0_1_MEMBER_0_FILL" data-name="Symbol 12 0 Layer0 1 MEMBER 0 FILL"><path class="cls-10" d="M134.1,50.05a3.67,3.67,0,0,0,.65-2.2,3.9,3.9,0,0,0-.65-2.25,1.74,1.74,0,0,0-1.49-.9,1.86,1.86,0,0,0-1.53.9,4.11,4.11,0,0,0-.6,2.25,3.87,3.87,0,0,0,.6,2.2,1.85,1.85,0,0,0,1.53,1A1.73,1.73,0,0,0,134.1,50.05Z" transform="translate(-84.18 -9)"/></g><g id="Symbol_12_0_Layer0_1_MEMBER_1_FILL" data-name="Symbol 12 0 Layer0 1 MEMBER 1 FILL"><path class="cls-10" d="M117.4,50.05a3.67,3.67,0,0,0,.64-2.2,3.89,3.89,0,0,0-.64-2.25,1.76,1.76,0,0,0-1.49-.9,1.86,1.86,0,0,0-1.54.9,4.19,4.19,0,0,0-.59,2.25,4,4,0,0,0,.59,2.2,1.85,1.85,0,0,0,1.54,1A1.75,1.75,0,0,0,117.4,50.05Z" transform="translate(-84.18 -9)"/></g><g id="Symbol_12_0_Layer0_2_FILL" data-name="Symbol 12 0 Layer0 2 FILL"><path class="cls-1" d="M99.4,29.5a53.88,53.88,0,0,0,1.24,25.25q4.9-4.65,5.55-16.5Q110.9,20.66,145.35,9q-25,5.36-38.51,12.25L104,26Z" transform="translate(-84.18 -9)"/><path class="cls-11" d="M123.54,36.5a57.26,57.26,0,0,0,17.6,2.15l1,8.1q4.51-13.5,2.93-19-2.19-7.65.29-18.75-34.44,11.66-39.16,29.25Q113.33,33.35,123.54,36.5Z" transform="translate(-84.18 -9)"/></g></g><g id="legRight_FL_FL" data-name="legRight FL FL"><g id="Symbol_11_0_Layer0_0_FILL-2" data-name="Symbol 11 0 Layer0 0 FILL"><path class="cls-1" d="M122.54,97.66l1.27-4.78,17.52,2.52,0-.05a8.42,8.42,0,0,1,2.45,3.22l-.55,2.06Z" transform="translate(-84.18 -9)"/><path class="cls-2" d="M123.81,92.88h0l.86-3.25,17.58,2.52-.85,3.2,0,.05Z" transform="translate(-84.18 -9)"/><path class="cls-3" d="M130.28,78.24a9.85,9.85,0,0,1,6.87-1.55h0A7.66,7.66,0,0,1,142.73,80a7.42,7.42,0,0,1,1,6.35l-1.53,5.78-17.58-2.52,1.54-5.78A9.45,9.45,0,0,1,130.28,78.24Z" transform="translate(-84.18 -9)"/></g></g></svg>